<svg width="527" height="175" viewBox="0 0 527 175" fill="none" xmlns="http://www.w3.org/2000/svg">
<path d="M190.25 111.125L208.312 70.125L209.062 68.4375C215.021 54.9792 218 47.0208 218 44.5625C218 44.4792 217.979 44.3542 217.938 44.1875C217.896 44.0208 217.875 43.8958 217.875 43.8125C220.333 43.9375 222.542 44.0417 224.5 44.125C226.5 44.1667 228.271 44.1875 229.812 44.1875C231.271 44.1875 232.958 44.1667 234.875 44.125C236.792 44.0417 238.896 43.9375 241.188 43.8125V48.125H240.438C236.812 48.125 234.312 48.75 232.938 50C231.604 51.25 230.938 53.4792 230.938 56.6875C230.938 57.9375 231.021 60.7292 231.188 65.0625C231.354 69.3958 231.562 74.0833 231.812 79.125L232.875 96.6875L232.938 98.375C233.854 113.958 234.562 122.771 235.062 124.812C235.312 126.021 236.083 126.958 237.375 127.625C238.667 128.292 240.354 128.625 242.438 128.625H244V133C240.708 132.833 237.646 132.708 234.812 132.625C231.979 132.542 229.625 132.5 227.75 132.5C225.542 132.5 223.062 132.542 220.312 132.625C217.562 132.708 214.625 132.833 211.5 133V128.5C211.875 128.5 212.354 128.521 212.938 128.562C213.521 128.604 213.938 128.625 214.188 128.625C217.354 128.625 219.542 128.062 220.75 126.938C222 125.812 222.625 123.771 222.625 120.812C222.625 119.438 222.604 118.083 222.562 116.75C222.521 115.417 222.458 114.042 222.375 112.625L219.938 58.875L194.312 117.812C194.271 117.896 194.188 118.083 194.062 118.375C192.062 122.5 190.583 126.896 189.625 131.562H185.5C184.917 128.979 183.458 125.021 181.125 119.688L180.875 119.125L155.688 62.0625C155.438 66.5208 155.083 72.6458 154.625 80.4375C153.458 99.7708 152.875 111.875 152.875 116.75V117.375C152.875 122.667 153.458 125.875 154.625 127C155.833 128.083 158.271 128.625 161.938 128.625H163.25V133C160.542 132.833 157.938 132.708 155.438 132.625C152.979 132.542 150.583 132.5 148.25 132.5C146.583 132.5 144.5 132.542 142 132.625C139.542 132.708 136.896 132.833 134.062 133V128.625H135.812C138.188 128.625 139.958 128.333 141.125 127.75C142.292 127.167 143.208 126.146 143.875 124.688C144.667 122.979 145.479 116.062 146.312 103.938C146.521 100.604 146.708 97.9583 146.875 96L148 80.875V80.6875C149.125 65.7292 149.688 57.2292 149.688 55.1875C149.688 52.5625 149.042 50.7292 147.75 49.6875C146.5 48.6458 144.104 48.125 140.562 48.125H139.562V43.8125C139.896 43.8125 140.438 43.8333 141.188 43.875C146.021 44.1667 149.396 44.3125 151.312 44.3125C152.771 44.3125 155.542 44.1875 159.625 43.9375C160.917 43.8542 161.896 43.8125 162.562 43.8125V44.1875C162.562 47.8958 169.625 65.3958 183.75 96.6875L190.25 111.125ZM273.188 69.125C273.146 70.7083 273.083 72.9583 273 75.875C272.458 92.625 272.188 104.417 272.188 111.25V117.875C272.188 122.708 272.646 125.75 273.562 127C274.479 128.25 276.271 128.875 278.938 128.875C279.188 128.875 279.521 128.854 279.938 128.812C280.354 128.771 280.667 128.75 280.875 128.75V133C277.333 132.75 274.479 132.583 272.312 132.5C270.146 132.417 268.312 132.375 266.812 132.375C265.479 132.375 263.771 132.417 261.688 132.5C259.646 132.583 256.562 132.75 252.438 133V128.625H254C259.167 128.625 261.771 123.542 261.812 113.375C261.812 111.917 261.812 110.771 261.812 109.938L262.062 94.5C262.062 93.375 262.083 91.9583 262.125 90.25C262.167 88.5417 262.188 87.3958 262.188 86.8125C262.188 83.4375 261.854 81.2083 261.188 80.125C260.562 79.0417 259.396 78.5 257.688 78.5C257.354 78.5 256.854 78.5417 256.188 78.625C255.562 78.6667 254.875 78.7292 254.125 78.8125L253.5 74.875C256.792 74.25 260.062 73.4583 263.312 72.5C266.604 71.5417 269.896 70.4167 273.188 69.125ZM266.438 39.6875L270.875 43C272.042 43.875 272.896 44.75 273.438 45.625C273.979 46.5 274.25 47.4167 274.25 48.375C274.25 49.3333 274.021 50.1667 273.562 50.875C273.146 51.5417 272.333 52.3333 271.125 53.25L266.438 56.8125L262.062 53.375C260.854 52.4167 259.979 51.5417 259.438 50.75C258.896 49.9167 258.625 49.0417 258.625 48.125C258.625 47.2083 258.833 46.4167 259.25 45.75C259.667 45.0417 260.521 44.2083 261.812 43.25L266.438 39.6875ZM309.938 69.125C309.646 71.9583 309.417 74.8333 309.25 77.75C309.083 80.625 308.958 83.6875 308.875 86.9375C312.25 80.9792 315.354 76.6875 318.188 74.0625C321.062 71.4375 324.021 70.125 327.062 70.125C329.438 70.125 331.312 70.7708 332.688 72.0625C334.062 73.3125 334.75 75.0208 334.75 77.1875C334.75 78.7292 334.292 80.0625 333.375 81.1875C332.5 82.2708 331.458 82.8125 330.25 82.8125C329.5 82.8125 328.333 82.4167 326.75 81.625C325.208 80.7917 323.875 80.375 322.75 80.375C320.583 80.375 318.417 81.3333 316.25 83.25C314.083 85.125 311.812 88.0625 309.438 92.0625V98.9375C309.438 105.604 309.479 111.021 309.562 115.188C309.688 119.312 309.854 121.938 310.062 123.062C310.438 125.188 311.229 126.646 312.438 127.438C313.688 128.229 315.792 128.625 318.75 128.625H320.562V133C317.312 132.75 314.417 132.562 311.875 132.438C309.333 132.312 307.188 132.25 305.438 132.25C303.021 132.25 300.521 132.312 297.938 132.438C295.396 132.562 292.729 132.75 289.938 133V128.625H291.375C294.417 128.625 296.479 127.896 297.562 126.438C298.646 124.979 299.188 121.583 299.188 116.25V109.688V89.375C299.188 84.875 298.875 81.9792 298.25 80.6875C297.625 79.3958 296.479 78.75 294.812 78.75C294.479 78.75 294.125 78.7708 293.75 78.8125C293.375 78.8125 292.75 78.875 291.875 79L291.125 75.125C294.083 74.4583 297.125 73.625 300.25 72.625C303.375 71.625 306.604 70.4583 309.938 69.125ZM396.562 123.938L398.312 127.875C395.188 130.125 392.333 131.854 389.75 133.062C387.167 134.312 385.083 134.938 383.5 134.938C380.833 134.938 378.833 134.167 377.5 132.625C376.167 131.042 375.438 128.667 375.312 125.5C370.771 128.542 367 130.729 364 132.062C361 133.354 358.312 134 355.938 134C351.729 134 348.208 132.417 345.375 129.25C342.542 126.083 341.125 122.208 341.125 117.625C341.125 109.833 349.521 103.958 366.312 100C370.271 99.0833 373.354 98.3542 375.562 97.8125C375.562 97.1042 375.583 96.0833 375.625 94.75C375.75 92 375.812 90.2083 375.812 89.375C375.812 85.0417 374.917 81.8542 373.125 79.8125C371.333 77.7292 368.604 76.6875 364.938 76.6875C361.354 76.6875 358.521 77.3542 356.438 78.6875C354.396 79.9792 353.375 81.75 353.375 84C353.375 84.2083 353.396 84.5 353.438 84.875C353.479 85.2083 353.5 85.4583 353.5 85.625C353.5 86.9167 352.875 88 351.625 88.875C350.375 89.7083 348.875 90.125 347.125 90.125C345.625 90.125 344.521 89.875 343.812 89.375C343.104 88.875 342.75 88.1042 342.75 87.0625C342.75 83.7292 345.562 80.0208 351.188 75.9375C356.812 71.8125 362.625 69.75 368.625 69.75C374.417 69.75 378.812 71.3542 381.812 74.5625C384.812 77.7292 386.312 82.3958 386.312 88.5625C386.312 91.8958 386.104 97.0208 385.688 103.938C385.312 110.854 385.125 116.104 385.125 119.688C385.125 122.396 385.417 124.229 386 125.188C386.625 126.146 387.708 126.625 389.25 126.625C389.917 126.625 390.771 126.438 391.812 126.062C392.896 125.646 394.479 124.938 396.562 123.938ZM375.25 102.812C374.458 103.021 373.271 103.333 371.688 103.75C358.146 107.458 351.375 111.833 351.375 116.875C351.375 119.625 352.25 121.875 354 123.625C355.75 125.333 358.062 126.188 360.938 126.188C362.688 126.188 364.708 125.729 367 124.812C369.292 123.896 371.958 122.438 375 120.438L375.25 102.812ZM429.75 74.625C425.292 74.625 421.833 76 419.375 78.75C416.917 81.5 415.688 85.375 415.688 90.375C415.688 95.875 416.875 100.167 419.25 103.25C421.667 106.292 425.042 107.812 429.375 107.812C433.75 107.812 437.188 106.438 439.688 103.688C442.188 100.896 443.438 97.0625 443.438 92.1875C443.438 86.5625 442.25 82.2292 439.875 79.1875C437.5 76.1458 434.125 74.625 429.75 74.625ZM418.375 132.125C416.333 134.417 414.833 136.5 413.875 138.375C412.917 140.25 412.438 142.042 412.438 143.75C412.438 147.625 414.167 150.896 417.625 153.562C421.125 156.229 425.5 157.562 430.75 157.562C436.708 157.562 441.854 155.896 446.188 152.562C450.562 149.271 452.75 145.562 452.75 141.438C452.75 138.062 451.688 135.688 449.562 134.312C447.438 132.938 443.354 132.25 437.312 132.25C436.688 132.25 435.312 132.229 433.188 132.188C431.062 132.146 429.271 132.125 427.812 132.125H418.375ZM444.562 74.25C447.354 74.25 450.167 74.2083 453 74.125C455.875 74.0417 458.75 73.9167 461.625 73.75L461.312 80C459.479 79.7917 457.458 79.6458 455.25 79.5625C453.083 79.4375 450.562 79.375 447.688 79.375C449.646 80.875 451.125 82.7083 452.125 84.875C453.167 87 453.688 89.3542 453.688 91.9375C453.688 97.5625 451.333 102.396 446.625 106.438C441.958 110.479 436.208 112.5 429.375 112.5C428.667 112.5 427.667 112.458 426.375 112.375C425.083 112.25 424.167 112.167 423.625 112.125C422.5 112.875 421.438 113.667 420.438 114.5C419.438 115.292 418.521 116.125 417.688 117C418.312 118.167 419.021 119.25 419.812 120.25C420.646 121.208 421.604 122.125 422.688 123C423.979 123 425.833 122.979 428.25 122.938C434.083 122.812 437.917 122.75 439.75 122.75C447.292 122.75 452.708 123.896 456 126.188C459.333 128.479 461 132.167 461 137.25C461 140.5 460.083 143.771 458.25 147.062C456.458 150.396 453.917 153.438 450.625 156.188C447.25 158.979 443.354 161.167 438.938 162.75C434.562 164.333 430.208 165.125 425.875 165.125C419.417 165.125 414 163.417 409.625 160C405.292 156.583 403.125 152.438 403.125 147.562C403.125 144.729 404.021 141.938 405.812 139.188C407.646 136.479 410.833 133.271 415.375 129.562C413.5 127.854 411.938 126.104 410.688 124.312C409.479 122.521 408.5 120.562 407.75 118.438C409.25 117.021 410.896 115.688 412.688 114.438C414.479 113.146 416.458 111.875 418.625 110.625C414.417 109.292 411.125 107.062 408.75 103.938C406.375 100.812 405.188 97.1875 405.188 93.0625C405.188 86.6042 407.562 81.1458 412.312 76.6875C417.104 72.2292 423.083 70 430.25 70C432.875 70 435.333 70.3542 437.625 71.0625C439.917 71.7292 442.229 72.7917 444.562 74.25ZM522.375 98.0625H491.875C489.5 98.0625 487.312 98.1042 485.312 98.1875C483.312 98.2708 481.458 98.3958 479.75 98.5625V100.875C479.75 109.042 481.625 115.354 485.375 119.812C489.167 124.271 494.5 126.5 501.375 126.5C504.417 126.5 507.417 126 510.375 125C513.333 123.958 516.479 122.354 519.812 120.188L522.25 124.188C517.958 127.688 513.667 130.333 509.375 132.125C505.125 133.917 500.917 134.812 496.75 134.812C488.667 134.812 482 131.938 476.75 126.188C471.5 120.396 468.875 112.979 468.875 103.938C468.875 94.3125 471.625 86.2292 477.125 79.6875C482.625 73.1458 489.333 69.875 497.25 69.875C504.625 69.875 510.5 72.3333 514.875 77.25C519.25 82.1667 521.75 89.1042 522.375 98.0625ZM510.812 91.5C509.562 86.375 507.667 82.4583 505.125 79.75C502.583 77 499.542 75.625 496 75.625C492 75.625 488.562 77.2292 485.688 80.4375C482.854 83.6458 481 87.9792 480.125 93.4375C488.375 93.4375 494.854 93.2917 499.562 93C504.312 92.7083 508.062 92.2083 510.812 91.5Z" fill="white"/>
<path d="M105.097 51.7245L119.307 99.6626L84.8964 135.938L36.2756 124.276L22.0652 76.3375L56.4757 40.0619L105.097 51.7245Z" fill="url(#paint0_linear_4_211)"/>
<path d="M71 55L79.8671 79.1329L104 88L79.8671 96.8671L71 121L62.1329 96.8671L38 88L62.1329 79.1329L71 55Z" fill="white"/>
<defs>
<linearGradient id="paint0_linear_4_211" x1="41" y1="62" x2="100" y2="116.5" gradientUnits="userSpaceOnUse">
<stop stop-color="#CB77FF"/>
<stop offset="1" stop-color="#B640FF"/>
</linearGradient>
</defs>
</svg>
