<svg width="10" height="10" viewBox="0 0 10 10" fill="none" xmlns="http://www.w3.org/2000/svg">
<path d="M5 0.806452C7.3176 0.806452 9.19355 2.68204 9.19355 5C9.19355 7.3176 7.31796 9.19355 5 9.19355C2.6824 9.19355 0.806452 7.31796 0.806452 5C0.806452 2.6824 2.68204 0.806452 5 0.806452ZM5 0C2.23857 0 0 2.23857 0 5C0 7.76143 2.23857 10 5 10C7.76143 10 10 7.76143 10 5C10 2.23857 7.76143 0 5 0ZM5 1.12903C2.86212 1.12903 1.12903 2.86212 1.12903 5C1.12903 7.13788 2.86212 8.87097 5 8.87097C7.13788 8.87097 8.87097 7.13788 8.87097 5C8.87097 2.86212 7.13788 1.12903 5 1.12903ZM5 2.01613C5.40085 2.01613 5.72581 2.34109 5.72581 2.74194C5.72581 3.14278 5.40085 3.46774 5 3.46774C4.59915 3.46774 4.27419 3.14278 4.27419 2.74194C4.27419 2.34109 4.59915 2.01613 5 2.01613ZM7.37381 3.9924C6.79494 4.12907 6.25464 4.24942 5.71776 4.31109C5.73492 6.34784 5.96587 6.79198 6.22254 7.44861C6.29546 7.6353 6.20325 7.84575 6.01655 7.91867C5.82984 7.99159 5.6194 7.89937 5.54647 7.71268C5.37097 7.26292 5.202 6.89341 5.09766 6.12903H4.90238C4.79821 6.89216 4.62952 7.26226 4.45355 7.71268C4.38067 7.89927 4.17028 7.99163 3.98349 7.91867C3.79679 7.84575 3.70458 7.63528 3.7775 7.44861C4.03381 6.79254 4.2651 6.34899 4.28228 4.31109C3.7454 4.24944 3.2051 4.12909 2.62621 3.9924C2.45282 3.95145 2.34544 3.77772 2.38639 3.60431C2.42734 3.43091 2.60105 3.32355 2.77448 3.3645C4.72379 3.82476 5.28018 3.82383 7.22558 3.3645C7.39895 3.32357 7.57272 3.43091 7.61367 3.60431C7.65458 3.77772 7.5472 3.95147 7.37381 3.9924Z" fill="#DBDBDB"/>
</svg>
