<svg width="20" height="23" viewBox="0 0 20 23" fill="none" xmlns="http://www.w3.org/2000/svg">
<path d="M9.62963 22.2222C11.148 22.2222 12.3797 20.9787 12.3797 19.4444H6.87961C6.87961 20.9787 8.11125 22.2222 9.62963 22.2222ZM18.8891 15.7244C18.0585 14.8234 16.5045 13.4679 16.5045 9.02778C16.5045 5.65538 14.1624 2.95573 11.0044 2.2934V1.38889C11.0044 0.621962 10.3888 0 9.62963 0C8.87044 0 8.25483 0.621962 8.25483 1.38889V2.2934C5.09684 2.95573 2.75478 5.65538 2.75478 9.02778C2.75478 13.4679 1.20072 14.8234 0.370167 15.7244C0.112232 16.0043 -0.00211974 16.339 2.97223e-05 16.6667C0.00475854 17.3785 0.558031 18.0556 1.37999 18.0556H17.8793C18.7012 18.0556 19.2549 17.3785 19.2592 16.6667C19.2614 16.339 19.147 16.0039 18.8891 15.7244Z" fill="#DBDBDB"/>
</svg>
