<svg width="14" height="14" viewBox="0 0 14 14" fill="none" xmlns="http://www.w3.org/2000/svg">
<path d="M11.8921 3.60502C12.8677 3.46496 13.4362 4.67167 12.7069 5.33474L10.1811 7.63136C9.93568 7.85455 9.81689 8.18495 9.86404 8.51334L10.3491 11.8925C10.4892 12.8681 9.2825 13.4366 8.61942 12.7073L6.3228 10.1816C6.09961 9.9361 5.76922 9.81731 5.44082 9.86446L2.06166 10.3496C1.08604 10.4896 0.517576 9.28291 1.24682 8.61984L3.7726 6.32322C4.01806 6.10003 4.13685 5.76963 4.08971 5.44124L3.6046 2.06208C3.46454 1.08646 4.67125 0.517994 5.33433 1.24723L7.63095 3.77302C7.85414 4.01848 8.18453 4.13727 8.51292 4.09013L11.8921 3.60502Z" fill="url(#paint0_linear_53_497)"/>
<defs>
<linearGradient id="paint0_linear_53_497" x1="4.96382" y1="-1.07144" x2="11.9829" y2="13.9008" gradientUnits="userSpaceOnUse">
<stop stop-color="#ED7EFF"/>
<stop offset="1" stop-color="#7EC1FF"/>
</linearGradient>
</defs>
</svg>
