<svg width="20" height="21" viewBox="0 0 20 21" fill="none" xmlns="http://www.w3.org/2000/svg">
<path d="M19.7445 12.8462L17.9502 11.8188C18.1313 10.8499 18.1313 9.85599 17.9502 8.8871L19.7445 7.85974C19.9509 7.74281 20.0436 7.50059 19.9762 7.27507C19.5087 5.78832 18.7126 4.44357 17.6722 3.32434C17.5121 3.15311 17.251 3.11135 17.0488 3.22828L15.2544 4.25564C14.5005 3.6125 13.6328 3.11552 12.6935 2.78977V0.739236C12.6935 0.505365 12.5292 0.300729 12.2975 0.250614C10.7517 -0.0918384 9.16793 -0.0751334 7.6979 0.250614C7.46623 0.300729 7.30196 0.505365 7.30196 0.739236V2.79395C6.36687 3.12388 5.49917 3.62085 4.74099 4.25982L2.95084 3.23246C2.74445 3.11552 2.48751 3.15311 2.32745 3.32851C1.28706 4.44357 0.490969 5.78832 0.0234244 7.27924C-0.0481816 7.50476 0.0486971 7.74698 0.255091 7.86392L2.04945 8.89128C1.86833 9.86017 1.86833 10.8541 2.04945 11.823L0.255091 12.8504C0.0486971 12.9673 -0.0439695 13.2095 0.0234244 13.435C0.490969 14.9218 1.28706 16.2665 2.32745 17.3858C2.48751 17.557 2.74866 17.5988 2.95084 17.4818L4.74521 16.4545C5.49917 17.0976 6.36687 17.5946 7.30617 17.9203V19.975C7.30617 20.2089 7.47044 20.4136 7.70211 20.4637C9.24796 20.8061 10.8317 20.7894 12.3017 20.4637C12.5334 20.4136 12.6977 20.2089 12.6977 19.975V17.9203C13.6328 17.5904 14.5005 17.0934 15.2586 16.4545L17.053 17.4818C17.2594 17.5988 17.5163 17.5612 17.6764 17.3858C18.7168 16.2707 19.5129 14.926 19.9804 13.435C20.0436 13.2053 19.9509 12.9631 19.7445 12.8462ZM9.99771 13.694C8.14017 13.694 6.62802 12.1947 6.62802 10.353C6.62802 8.51124 8.14017 7.01196 9.99771 7.01196C11.8553 7.01196 13.3674 8.51124 13.3674 10.353C13.3674 12.1947 11.8553 13.694 9.99771 13.694Z" fill="#DBDBDB"/>
</svg>
