<svg width="295" height="35" viewBox="0 0 295 35" fill="none" xmlns="http://www.w3.org/2000/svg">
<circle cx="2.5" cy="2.5" r="2.5" fill="#E9EBED"/>
<circle cx="12.5" cy="2.5" r="2.5" fill="#E9EBED"/>
<circle cx="22.5" cy="2.5" r="2.5" fill="#E9EBED"/>
<circle cx="32.5" cy="2.5" r="2.5" fill="#E9EBED"/>
<circle cx="42.5" cy="2.5" r="2.5" fill="#E9EBED"/>
<circle cx="52.5" cy="2.5" r="2.5" fill="#E9EBED"/>
<circle cx="62.5" cy="2.5" r="2.5" fill="#E9EBED"/>
<circle cx="72.5" cy="2.5" r="2.5" fill="#E9EBED"/>
<circle cx="82.5" cy="2.5" r="2.5" fill="#E9EBED"/>
<circle cx="92.5" cy="2.5" r="2.5" fill="#E9EBED"/>
<circle cx="102.5" cy="2.5" r="2.5" fill="#E9EBED"/>
<circle cx="112.5" cy="2.5" r="2.5" fill="#E9EBED"/>
<circle cx="122.5" cy="2.5" r="2.5" fill="#E9EBED"/>
<circle cx="132.5" cy="2.5" r="2.5" fill="#E9EBED"/>
<circle cx="142.5" cy="2.5" r="2.5" fill="#E9EBED"/>
<circle cx="152.5" cy="2.5" r="2.5" fill="#E9EBED"/>
<circle cx="162.5" cy="2.5" r="2.5" fill="#E9EBED"/>
<circle cx="172.5" cy="2.5" r="2.5" fill="#E9EBED"/>
<circle cx="182.5" cy="2.5" r="2.5" fill="#E9EBED"/>
<circle cx="192.5" cy="2.5" r="2.5" fill="#E9EBED"/>
<circle cx="202.5" cy="2.5" r="2.5" fill="#E9EBED"/>
<circle cx="212.5" cy="2.5" r="2.5" fill="#E9EBED"/>
<circle cx="222.5" cy="2.5" r="2.5" fill="#E9EBED"/>
<circle cx="232.5" cy="2.5" r="2.5" fill="#E9EBED"/>
<circle cx="242.5" cy="2.5" r="2.5" fill="#E9EBED"/>
<circle cx="252.5" cy="2.5" r="2.5" fill="#E9EBED"/>
<circle cx="262.5" cy="2.5" r="2.5" fill="#E9EBED"/>
<circle cx="272.5" cy="2.5" r="2.5" fill="#E9EBED"/>
<circle cx="282.5" cy="2.5" r="2.5" fill="#E9EBED"/>
<circle cx="292.5" cy="2.5" r="2.5" fill="#E9EBED"/>
<circle cx="2.5" cy="12.5" r="2.5" fill="#E9EBED" fill-opacity="0.8"/>
<circle cx="12.5" cy="12.5" r="2.5" fill="#E9EBED" fill-opacity="0.8"/>
<circle cx="22.5" cy="12.5" r="2.5" fill="#E9EBED" fill-opacity="0.8"/>
<circle cx="32.5" cy="12.5" r="2.5" fill="#E9EBED" fill-opacity="0.8"/>
<circle cx="42.5" cy="12.5" r="2.5" fill="#E9EBED" fill-opacity="0.8"/>
<circle cx="52.5" cy="12.5" r="2.5" fill="#E9EBED" fill-opacity="0.8"/>
<circle cx="62.5" cy="12.5" r="2.5" fill="#E9EBED" fill-opacity="0.8"/>
<circle cx="72.5" cy="12.5" r="2.5" fill="#E9EBED" fill-opacity="0.8"/>
<circle cx="82.5" cy="12.5" r="2.5" fill="#E9EBED" fill-opacity="0.8"/>
<circle cx="92.5" cy="12.5" r="2.5" fill="#E9EBED" fill-opacity="0.8"/>
<circle cx="102.5" cy="12.5" r="2.5" fill="#E9EBED" fill-opacity="0.8"/>
<circle cx="112.5" cy="12.5" r="2.5" fill="#E9EBED" fill-opacity="0.8"/>
<circle cx="122.5" cy="12.5" r="2.5" fill="#E9EBED" fill-opacity="0.8"/>
<circle cx="132.5" cy="12.5" r="2.5" fill="#E9EBED" fill-opacity="0.8"/>
<circle cx="142.5" cy="12.5" r="2.5" fill="#E9EBED" fill-opacity="0.8"/>
<circle cx="152.5" cy="12.5" r="2.5" fill="#E9EBED" fill-opacity="0.8"/>
<circle cx="162.5" cy="12.5" r="2.5" fill="#E9EBED" fill-opacity="0.8"/>
<circle cx="172.5" cy="12.5" r="2.5" fill="#E9EBED" fill-opacity="0.8"/>
<circle cx="182.5" cy="12.5" r="2.5" fill="#E9EBED" fill-opacity="0.8"/>
<circle cx="192.5" cy="12.5" r="2.5" fill="#E9EBED" fill-opacity="0.8"/>
<circle cx="202.5" cy="12.5" r="2.5" fill="#E9EBED" fill-opacity="0.8"/>
<circle cx="212.5" cy="12.5" r="2.5" fill="#E9EBED" fill-opacity="0.8"/>
<circle cx="222.5" cy="12.5" r="2.5" fill="#E9EBED" fill-opacity="0.8"/>
<circle cx="232.5" cy="12.5" r="2.5" fill="#E9EBED" fill-opacity="0.8"/>
<circle cx="242.5" cy="12.5" r="2.5" fill="#E9EBED" fill-opacity="0.8"/>
<circle cx="252.5" cy="12.5" r="2.5" fill="#E9EBED" fill-opacity="0.8"/>
<circle cx="262.5" cy="12.5" r="2.5" fill="#E9EBED" fill-opacity="0.8"/>
<circle cx="272.5" cy="12.5" r="2.5" fill="#E9EBED" fill-opacity="0.8"/>
<circle cx="282.5" cy="12.5" r="2.5" fill="#E9EBED" fill-opacity="0.8"/>
<circle cx="292.5" cy="12.5" r="2.5" fill="#E9EBED" fill-opacity="0.8"/>
<circle cx="2.5" cy="22.5" r="2.5" fill="#E9EBED" fill-opacity="0.6"/>
<circle cx="12.5" cy="22.5" r="2.5" fill="#E9EBED" fill-opacity="0.6"/>
<circle cx="22.5" cy="22.5" r="2.5" fill="#E9EBED" fill-opacity="0.6"/>
<circle cx="32.5" cy="22.5" r="2.5" fill="#E9EBED" fill-opacity="0.6"/>
<circle cx="42.5" cy="22.5" r="2.5" fill="#E9EBED" fill-opacity="0.6"/>
<circle cx="52.5" cy="22.5" r="2.5" fill="#E9EBED" fill-opacity="0.6"/>
<circle cx="62.5" cy="22.5" r="2.5" fill="#E9EBED" fill-opacity="0.6"/>
<circle cx="72.5" cy="22.5" r="2.5" fill="#E9EBED" fill-opacity="0.6"/>
<circle cx="82.5" cy="22.5" r="2.5" fill="#E9EBED" fill-opacity="0.6"/>
<circle cx="92.5" cy="22.5" r="2.5" fill="#E9EBED" fill-opacity="0.6"/>
<circle cx="102.5" cy="22.5" r="2.5" fill="#E9EBED" fill-opacity="0.6"/>
<circle cx="112.5" cy="22.5" r="2.5" fill="#E9EBED" fill-opacity="0.6"/>
<circle cx="122.5" cy="22.5" r="2.5" fill="#E9EBED" fill-opacity="0.6"/>
<circle cx="132.5" cy="22.5" r="2.5" fill="#E9EBED" fill-opacity="0.6"/>
<circle cx="142.5" cy="22.5" r="2.5" fill="#E9EBED" fill-opacity="0.6"/>
<circle cx="152.5" cy="22.5" r="2.5" fill="#E9EBED" fill-opacity="0.6"/>
<circle cx="162.5" cy="22.5" r="2.5" fill="#E9EBED" fill-opacity="0.6"/>
<circle cx="172.5" cy="22.5" r="2.5" fill="#E9EBED" fill-opacity="0.6"/>
<circle cx="182.5" cy="22.5" r="2.5" fill="#E9EBED" fill-opacity="0.6"/>
<circle cx="192.5" cy="22.5" r="2.5" fill="#E9EBED" fill-opacity="0.6"/>
<circle cx="202.5" cy="22.5" r="2.5" fill="#E9EBED" fill-opacity="0.6"/>
<circle cx="212.5" cy="22.5" r="2.5" fill="#E9EBED" fill-opacity="0.6"/>
<circle cx="222.5" cy="22.5" r="2.5" fill="#E9EBED" fill-opacity="0.6"/>
<circle cx="232.5" cy="22.5" r="2.5" fill="#E9EBED" fill-opacity="0.6"/>
<circle cx="242.5" cy="22.5" r="2.5" fill="#E9EBED" fill-opacity="0.6"/>
<circle cx="252.5" cy="22.5" r="2.5" fill="#E9EBED" fill-opacity="0.6"/>
<circle cx="262.5" cy="22.5" r="2.5" fill="#E9EBED" fill-opacity="0.6"/>
<circle cx="272.5" cy="22.5" r="2.5" fill="#E9EBED" fill-opacity="0.6"/>
<circle cx="282.5" cy="22.5" r="2.5" fill="#E9EBED" fill-opacity="0.6"/>
<circle cx="292.5" cy="22.5" r="2.5" fill="#E9EBED" fill-opacity="0.6"/>
<circle cx="2.5" cy="32.5" r="2.5" fill="#E9EBED" fill-opacity="0.2"/>
<circle cx="12.5" cy="32.5" r="2.5" fill="#E9EBED" fill-opacity="0.2"/>
<circle cx="22.5" cy="32.5" r="2.5" fill="#E9EBED" fill-opacity="0.2"/>
<circle cx="32.5" cy="32.5" r="2.5" fill="#E9EBED" fill-opacity="0.2"/>
<circle cx="42.5" cy="32.5" r="2.5" fill="#E9EBED" fill-opacity="0.2"/>
<circle cx="52.5" cy="32.5" r="2.5" fill="#E9EBED" fill-opacity="0.2"/>
<circle cx="62.5" cy="32.5" r="2.5" fill="#E9EBED" fill-opacity="0.2"/>
<circle cx="72.5" cy="32.5" r="2.5" fill="#E9EBED" fill-opacity="0.2"/>
<circle cx="82.5" cy="32.5" r="2.5" fill="#E9EBED" fill-opacity="0.2"/>
<circle cx="92.5" cy="32.5" r="2.5" fill="#E9EBED" fill-opacity="0.2"/>
<circle cx="102.5" cy="32.5" r="2.5" fill="#E9EBED" fill-opacity="0.2"/>
<circle cx="112.5" cy="32.5" r="2.5" fill="#E9EBED" fill-opacity="0.2"/>
<circle cx="122.5" cy="32.5" r="2.5" fill="#E9EBED" fill-opacity="0.2"/>
<circle cx="132.5" cy="32.5" r="2.5" fill="#E9EBED" fill-opacity="0.2"/>
<circle cx="142.5" cy="32.5" r="2.5" fill="#E9EBED" fill-opacity="0.2"/>
<circle cx="152.5" cy="32.5" r="2.5" fill="#E9EBED" fill-opacity="0.2"/>
<circle cx="162.5" cy="32.5" r="2.5" fill="#E9EBED" fill-opacity="0.2"/>
<circle cx="172.5" cy="32.5" r="2.5" fill="#E9EBED" fill-opacity="0.2"/>
<circle cx="182.5" cy="32.5" r="2.5" fill="#E9EBED" fill-opacity="0.2"/>
<circle cx="192.5" cy="32.5" r="2.5" fill="#E9EBED" fill-opacity="0.2"/>
<circle cx="202.5" cy="32.5" r="2.5" fill="#E9EBED" fill-opacity="0.2"/>
<circle cx="212.5" cy="32.5" r="2.5" fill="#E9EBED" fill-opacity="0.2"/>
<circle cx="222.5" cy="32.5" r="2.5" fill="#E9EBED" fill-opacity="0.2"/>
<circle cx="232.5" cy="32.5" r="2.5" fill="#E9EBED" fill-opacity="0.2"/>
<circle cx="242.5" cy="32.5" r="2.5" fill="#E9EBED" fill-opacity="0.2"/>
<circle cx="252.5" cy="32.5" r="2.5" fill="#E9EBED" fill-opacity="0.2"/>
<circle cx="262.5" cy="32.5" r="2.5" fill="#E9EBED" fill-opacity="0.2"/>
<circle cx="272.5" cy="32.5" r="2.5" fill="#E9EBED" fill-opacity="0.2"/>
<circle cx="282.5" cy="32.5" r="2.5" fill="#E9EBED" fill-opacity="0.2"/>
<circle cx="292.5" cy="32.5" r="2.5" fill="#E9EBED" fill-opacity="0.2"/>
</svg>
