<svg width="16" height="16" viewBox="0 0 16 16" fill="none" xmlns="http://www.w3.org/2000/svg">
<path d="M8 0C3.58065 0 0 3.58065 0 8C0 12.4194 3.58065 16 8 16C12.4194 16 16 12.4194 16 8C16 3.58065 12.4194 0 8 0ZM10.5806 5.41935C11.1516 5.41935 11.6129 5.88064 11.6129 6.45161C11.6129 7.02258 11.1516 7.48387 10.5806 7.48387C10.0097 7.48387 9.54839 7.02258 9.54839 6.45161C9.54839 5.88064 10.0097 5.41935 10.5806 5.41935ZM5.41935 5.41935C5.99032 5.41935 6.45161 5.88064 6.45161 6.45161C6.45161 7.02258 5.99032 7.48387 5.41935 7.48387C4.84839 7.48387 4.3871 7.02258 4.3871 6.45161C4.3871 5.88064 4.84839 5.41935 5.41935 5.41935ZM11.7032 10.9097C10.7839 12.0129 9.43548 12.6452 8 12.6452C6.56452 12.6452 5.21613 12.0129 4.29677 10.9097C3.85806 10.3839 4.65161 9.72581 5.09032 10.2484C5.8129 11.1161 6.87097 11.6097 8 11.6097C9.12903 11.6097 10.1871 11.1129 10.9097 10.2484C11.3419 9.72581 12.1387 10.3839 11.7032 10.9097Z" fill="#DBDBDB"/>
</svg>
