<svg width="10" height="10" viewBox="0 0 10 10" fill="none" xmlns="http://www.w3.org/2000/svg">
<path d="M5 0C2.23851 0 0 2.23851 0 5C0 7.76149 2.23851 10 5 10C7.76149 10 10 7.76149 10 5C10 2.23851 7.76149 0 5 0ZM6.65907 7.20968C6.58044 7.2879 6.49798 7.36996 6.43105 7.4371C6.37077 7.49758 6.32823 7.57218 6.30665 7.65302C6.27621 7.76714 6.25161 7.88246 6.21048 7.99314L5.85988 8.9377C5.58246 8.99819 5.29536 9.03226 5 9.03226V8.48024C5.03407 8.22581 4.84597 7.74919 4.54375 7.44698C4.42278 7.32601 4.35484 7.16189 4.35484 6.99073V6.34536C4.35484 6.11069 4.22843 5.89496 4.02298 5.78145C3.73327 5.62117 3.32117 5.39718 3.03891 5.25504C2.80746 5.13851 2.59335 4.99012 2.40081 4.81653L2.38468 4.80202C2.24699 4.67773 2.12474 4.53734 2.02056 4.38387C1.83145 4.10625 1.52339 3.6496 1.32319 3.35282C1.73589 2.43548 2.47964 1.69879 3.40383 1.29859L3.8879 1.54073C4.10242 1.64798 4.35484 1.49214 4.35484 1.25222V1.0244C4.51593 0.998387 4.67984 0.981855 4.84657 0.975605L5.41714 1.54617C5.54315 1.67218 5.54315 1.87641 5.41714 2.00242L5.32258 2.09677L5.11411 2.30524C5.05121 2.36814 5.05121 2.47036 5.11411 2.53327L5.20867 2.62782C5.27157 2.69073 5.27157 2.79294 5.20867 2.85585L5.04738 3.01714C5.0171 3.04736 4.97605 3.06433 4.93327 3.06431H4.75202C4.71008 3.06431 4.66976 3.08064 4.63952 3.11008L4.43952 3.30464C4.415 3.32851 4.3987 3.35956 4.39298 3.39329C4.38725 3.42703 4.39239 3.46171 4.40766 3.49234L4.72198 4.12117C4.7756 4.22843 4.69758 4.35464 4.57782 4.35464H4.46411C4.4252 4.35464 4.3877 4.34052 4.35847 4.31512L4.17137 4.15262C4.12903 4.11589 4.07786 4.09081 4.02289 4.07986C3.96792 4.0689 3.91105 4.07243 3.85786 4.09012L3.22944 4.2996C3.18146 4.31559 3.13973 4.34628 3.11017 4.38732C3.0806 4.42835 3.0647 4.47765 3.06472 4.52823C3.06472 4.61956 3.11633 4.70282 3.19798 4.74375L3.42137 4.85544C3.61109 4.9504 3.82036 4.9998 4.03246 4.9998C4.24456 4.9998 4.4879 5.55 4.67762 5.64496H6.02339C6.19456 5.64496 6.35847 5.7129 6.47964 5.83387L6.75564 6.10988C6.87095 6.22523 6.93571 6.38166 6.93569 6.54476C6.93564 6.66835 6.91119 6.79071 6.86372 6.90481C6.81625 7.01892 6.7467 7.12253 6.65907 7.20968ZM8.40726 5.36794C8.29052 5.33871 8.18871 5.26714 8.12198 5.16694L7.75948 4.62319C7.70643 4.54374 7.67813 4.45036 7.67813 4.35484C7.67813 4.25932 7.70643 4.16594 7.75948 4.08649L8.15444 3.49415C8.20121 3.42419 8.26532 3.36734 8.34073 3.32984L8.60242 3.19899C8.875 3.74173 9.03226 4.35222 9.03226 5C9.03226 5.1748 9.01734 5.34597 8.99556 5.51492L8.40726 5.36794Z" fill="#DBDBDB"/>
</svg>
