<svg width="15" height="14" viewBox="0 0 15 14" fill="none" xmlns="http://www.w3.org/2000/svg">
<path d="M14.0575 7.44883C13.8621 6.85498 13.21 6.5393 12.6082 6.73308L11.1778 7.20504L10.2232 4.39207L11.6536 3.92012C12.2553 3.72634 12.5704 3.08248 12.3782 2.48551C12.1829 1.89166 11.5307 1.57598 10.9289 1.76977L9.49856 2.24172L9.00391 0.772728C8.80858 0.17888 8.1564 -0.136797 7.55464 0.0569853C6.95287 0.250767 6.63781 0.894623 6.83 1.4916L7.32465 2.96059L4.38199 3.93575L3.88734 2.46676C3.692 1.87291 3.03983 1.55723 2.43807 1.75101C1.8363 1.9448 1.52124 2.58865 1.71343 3.18562L2.20807 4.65462L0.78085 5.12344C0.179086 5.31722 -0.135974 5.96108 0.0562125 6.55805C0.213742 7.01125 0.657977 7.30818 1.11481 7.32693C1.32905 7.35819 1.49289 7.27692 2.93271 6.80184L3.88734 9.61481L2.45697 10.0868C1.85836 10.2805 1.54014 10.9275 1.73233 11.5214C1.88986 11.9746 2.3341 12.2715 2.79093 12.2902C3.00517 12.3215 3.169 12.2402 4.60883 11.7652L5.10347 13.2342C5.28936 13.7624 5.88167 14.1405 6.55275 13.9499C7.15451 13.7561 7.46957 13.1123 7.27739 12.5153L6.78274 11.0463L9.7317 10.068L10.2263 11.537C10.4122 12.0652 11.0045 12.4434 11.6756 12.2527C12.2774 12.059 12.5924 11.4151 12.4003 10.8181L11.9056 9.34914L13.336 8.87718C13.9346 8.68965 14.2528 8.04267 14.0575 7.44883ZM6.0518 8.92407L5.09717 6.10485L8.04298 5.12657L8.99761 7.94578L6.0518 8.92407Z" fill="#BABABA"/>
</svg>
