<svg width="20" height="20" viewBox="0 0 20 20" fill="none" xmlns="http://www.w3.org/2000/svg">
<path d="M12.7583 7.24184C15.0921 9.57813 15.0601 13.3238 12.7723 15.6242C12.768 15.6289 12.763 15.634 12.7583 15.6387L10.1333 18.2637C7.81805 20.5789 4.0513 20.5786 1.73642 18.2637C-0.578808 15.9489 -0.578808 12.1817 1.73642 9.86684L3.18587 8.41739C3.57025 8.03301 4.2322 8.28848 4.25204 8.83168C4.27736 9.52395 4.4015 10.2195 4.63056 10.8911C4.70814 11.1185 4.65271 11.3701 4.48278 11.54L3.97157 12.0512C2.87681 13.146 2.84248 14.9285 3.92646 16.034C5.02114 17.1504 6.82044 17.157 7.92352 16.0539L10.5485 13.4293C11.6497 12.3281 11.6451 10.5482 10.5485 9.4516C10.4039 9.30731 10.2583 9.1952 10.1446 9.11688C10.0641 9.06162 9.99766 8.98832 9.95054 8.90282C9.90343 8.81733 9.87694 8.722 9.8732 8.62446C9.85773 8.21168 10.004 7.78633 10.3302 7.46016L11.1526 6.6377C11.3682 6.42204 11.7066 6.39555 11.9566 6.57009C12.243 6.77007 12.5113 6.99485 12.7583 7.24184ZM18.2635 1.73631C15.9487 -0.578612 12.1819 -0.578925 9.86668 1.73631L7.24169 4.3613C7.237 4.36599 7.23192 4.37107 7.22762 4.37575C4.93989 6.67622 4.90782 10.4219 7.24169 12.7582C7.48867 13.0051 7.7569 13.2299 8.04329 13.4299C8.29336 13.6044 8.63172 13.5779 8.84735 13.3623L9.66977 12.5398C9.99594 12.2136 10.1422 11.7883 10.1267 11.3755C10.123 11.278 10.0965 11.1826 10.0494 11.0971C10.0023 11.0116 9.93582 10.9383 9.85535 10.8831C9.7416 10.8048 9.59598 10.6927 9.45141 10.5484C8.35481 9.45176 8.3502 7.67184 9.45141 6.57063L12.0764 3.94603C13.1795 2.84294 14.9787 2.84958 16.0735 3.96595C17.1574 5.07142 17.1231 6.85399 16.0283 7.94875L15.5171 8.45996C15.3472 8.62989 15.2918 8.88145 15.3694 9.10887C15.5984 9.78051 15.7226 10.476 15.7479 11.1683C15.7678 11.7115 16.4297 11.9669 16.814 11.5826L18.2635 10.1331C20.5788 7.81832 20.5788 4.05114 18.2635 1.73631Z" fill="#DBDBDB"/>
</svg>
