<svg width="20" height="16" viewBox="0 0 20 16" fill="none" xmlns="http://www.w3.org/2000/svg">
<path d="M19.7232 8.42688L13.0562 15.1999C12.4609 15.8047 11.4291 15.3814 11.4291 14.5146V10.6442H6.03205C5.50424 10.6442 5.07962 10.2129 5.07962 9.67667V5.80634C5.07962 5.27014 5.50424 4.83876 6.03205 4.83876H11.4291V0.968439C11.4291 0.105679 12.457 -0.32167 13.0562 0.283069L19.7232 7.05614C20.0923 7.43511 20.0923 8.04791 19.7232 8.42688ZM7.61943 14.9984V13.3857C7.61943 13.1196 7.40513 12.9019 7.14321 12.9019H3.80971C3.1073 12.9019 2.53981 12.3254 2.53981 11.6118V3.87118C2.53981 3.15759 3.1073 2.58107 3.80971 2.58107H7.14321C7.40513 2.58107 7.61943 2.36337 7.61943 2.09728V0.484648C7.61943 0.218563 7.40513 0.000857461 7.14321 0.000857461H3.80971C1.70643 0.000857461 0 1.73444 0 3.87118V11.6118C0 13.7486 1.70643 15.4822 3.80971 15.4822H7.14321C7.40513 15.4822 7.61943 15.2645 7.61943 14.9984Z" fill="#DBDBDB"/>
</svg>
