<svg width="14" height="16" viewBox="0 0 14 16" fill="none" xmlns="http://www.w3.org/2000/svg">
<path d="M1.35143 14.5669C-0.474506 12.6829 -0.440475 9.64472 1.39474 7.76754L7.94973 1.06251C9.3346 -0.354109 11.5857 -0.354234 12.9707 1.06251C14.3423 2.46545 14.3439 4.72904 12.9707 6.13363L7.25667 11.9727C6.3237 12.927 4.79939 12.9137 3.88224 11.9416C2.99865 11.005 3.02699 9.52053 3.92761 8.59928L8.41957 4.0107C8.61276 3.81339 8.92932 3.81001 9.12664 4.00317L9.84104 4.70251C10.0384 4.8957 10.0417 5.21226 9.84857 5.40957L5.35708 9.99772C5.20295 10.1554 5.19345 10.4173 5.33683 10.5693C5.47345 10.7142 5.68823 10.7166 5.82708 10.5745L11.5411 4.73542C12.154 4.10848 12.154 3.08776 11.5408 2.46048C10.9411 1.84714 9.9796 1.84683 9.3797 2.46048L2.82468 9.16547C1.73833 10.2767 1.72158 12.0755 2.78746 13.1752C3.85027 14.2719 5.56823 14.2733 6.63301 13.1842L12.0099 7.68422C12.2029 7.48676 12.5195 7.48319 12.7169 7.67622L13.4318 8.3751C13.6293 8.56813 13.6329 8.88469 13.4398 9.08216L8.06298 14.5821C6.20123 16.4864 3.18977 16.4638 1.35143 14.5669Z" fill="#DBDBDB"/>
</svg>
