<svg width="14" height="14" viewBox="0 0 14 14" fill="none" xmlns="http://www.w3.org/2000/svg">
<path d="M13.6143 3.88365L12.3538 5.14425C12.2252 5.27277 12.0174 5.27277 11.8889 5.14425L8.85361 2.10897C8.72509 1.98045 8.72509 1.77263 8.85361 1.64411L10.1142 0.383511C10.6256 -0.127837 11.4568 -0.127837 11.9709 0.383511L13.6143 2.02694C14.1284 2.53828 14.1284 3.36957 13.6143 3.88365ZM7.77076 2.72696L0.590001 9.90772L0.01029 13.2301C-0.06901 13.6786 0.322021 14.0669 0.770477 13.9903L4.09287 13.4079L11.2736 6.2271C11.4021 6.09858 11.4021 5.89076 11.2736 5.76224L8.23835 2.72696C8.1071 2.59844 7.89928 2.59844 7.77076 2.72696ZM3.39285 9.29246C3.24245 9.14206 3.24245 8.90143 3.39285 8.75103L7.60395 4.53993C7.75435 4.38953 7.99498 4.38953 8.14538 4.53993C8.29578 4.69032 8.29578 4.93096 8.14538 5.08135L3.93427 9.29246C3.78388 9.44286 3.54324 9.44286 3.39285 9.29246ZM2.4057 11.5922H3.71825V12.5848L1.95451 12.8938L1.10408 12.0434L1.41308 10.2796H2.4057V11.5922Z" fill="#DBDBDB"/>
</svg>
