<svg width="24" height="16" viewBox="0 0 24 16" fill="none" xmlns="http://www.w3.org/2000/svg">
<path d="M7.07368 8C9.35421 8 11.2 6.21071 11.2 4C11.2 1.78929 9.35421 0 7.07368 0C4.79316 0 2.94737 1.78929 2.94737 4C2.94737 6.21071 4.79316 8 7.07368 8ZM9.90316 9.14286H9.59737C8.83105 9.5 7.98 9.71429 7.07368 9.71429C6.16737 9.71429 5.32 9.5 4.55 9.14286H4.24421C1.90105 9.14286 0 10.9857 0 13.2571V14.2857C0 15.2321 0.792105 16 1.76842 16H12.3789C13.3553 16 14.1474 15.2321 14.1474 14.2857V13.2571C14.1474 10.9857 12.2463 9.14286 9.90316 9.14286ZM17.6842 8C19.6368 8 21.2211 6.46429 21.2211 4.57143C21.2211 2.67857 19.6368 1.14286 17.6842 1.14286C15.7316 1.14286 14.1474 2.67857 14.1474 4.57143C14.1474 6.46429 15.7316 8 17.6842 8ZM19.4526 9.14286H19.3126C18.8005 9.31429 18.2589 9.42857 17.6842 9.42857C17.1095 9.42857 16.5679 9.31429 16.0558 9.14286H15.9158C15.1642 9.14286 14.4716 9.35357 13.8637 9.69286C14.7626 10.6321 15.3263 11.8786 15.3263 13.2571V14.6286C15.3263 14.7071 15.3079 14.7821 15.3042 14.8571H21.8105C22.7868 14.8571 23.5789 14.0893 23.5789 13.1429C23.5789 10.9321 21.7332 9.14286 19.4526 9.14286Z" fill="#DBDBDB"/>
</svg>
