<svg width="20" height="20" viewBox="0 0 20 20" fill="none" xmlns="http://www.w3.org/2000/svg">
<path d="M19.4296 14.1327L15.0546 12.2577C14.8677 12.178 14.6599 12.1612 14.4627 12.2099C14.2654 12.2585 14.0893 12.3698 13.9608 12.5272L12.0233 14.8944C8.98248 13.4607 6.53535 11.0136 5.10165 7.97283L7.46888 6.0353C7.62657 5.90705 7.73818 5.73091 7.78682 5.53355C7.83545 5.3362 7.81846 5.12837 7.73842 4.94153L5.86339 0.566453C5.77554 0.365046 5.62017 0.200605 5.42406 0.101483C5.22796 0.00236143 5.00341 -0.0252272 4.78915 0.0234743L0.726575 0.960991C0.519997 1.00869 0.335688 1.12501 0.203728 1.29095C0.0717689 1.45689 -4.75872e-05 1.66266 2.36575e-08 1.87468C2.36575e-08 11.8944 8.12124 20 18.1253 20C18.3374 20.0001 18.5433 19.9284 18.7093 19.7964C18.8753 19.6644 18.9917 19.4801 19.0394 19.2734L19.9769 15.2109C20.0253 14.9955 19.9971 14.7701 19.8972 14.5733C19.7974 14.3765 19.632 14.2207 19.4296 14.1327Z" fill="#DBDBDB"/>
</svg>
