<svg width="14" height="14" viewBox="0 0 14 14" fill="none" xmlns="http://www.w3.org/2000/svg">
<path d="M13.8072 12.1039L11.0813 9.37799C10.9583 9.25496 10.7915 9.1866 10.6165 9.1866H10.1709C10.9255 8.22146 11.3739 7.00752 11.3739 5.68694C11.3739 2.54545 8.82843 0 5.68694 0C2.54545 0 0 2.54545 0 5.68694C0 8.82843 2.54545 11.3739 5.68694 11.3739C7.00752 11.3739 8.22146 10.9255 9.1866 10.1709V10.6165C9.1866 10.7915 9.25496 10.9583 9.37799 11.0813L12.1039 13.8072C12.3609 14.0643 12.7765 14.0643 13.0308 13.8072L13.8045 13.0335C14.0615 12.7765 14.0615 12.3609 13.8072 12.1039ZM5.68694 9.1866C3.75393 9.1866 2.18729 7.62269 2.18729 5.68694C2.18729 3.75393 3.7512 2.18729 5.68694 2.18729C7.61996 2.18729 9.1866 3.7512 9.1866 5.68694C9.1866 7.61996 7.62269 9.1866 5.68694 9.1866Z" fill="#BABABA"/>
</svg>
