<svg width="20" height="18" viewBox="0 0 20 18" fill="none" xmlns="http://www.w3.org/2000/svg">
<path d="M11.875 15H9.37502C9.20926 15 9.05029 15.0658 8.93307 15.183C8.81587 15.3002 8.75002 15.4592 8.75002 15.625V16.875C8.75002 17.0407 8.81587 17.1997 8.93307 17.3169C9.05029 17.4341 9.20926 17.5 9.37502 17.5H11.875C12.0408 17.5 12.1997 17.4341 12.317 17.3169C12.4342 17.1997 12.5 17.0407 12.5 16.875V15.625C12.5 15.4592 12.4342 15.3002 12.317 15.183C12.1997 15.0658 12.0408 15 11.875 15ZM6.87502 12.5H5.00002V0.624999C5.00002 0.459239 4.93417 0.300268 4.81696 0.183058C4.69975 0.0658479 4.54078 0 4.37502 0H3.12503C2.95927 0 2.80029 0.0658479 2.68308 0.183058C2.56587 0.300268 2.50003 0.459239 2.50003 0.624999V12.5H0.625029C0.0707331 12.5 -0.209735 13.1734 0.184014 13.5668L3.30901 17.3168C3.42621 17.4339 3.58512 17.4997 3.75081 17.4997C3.91649 17.4997 4.0754 17.4339 4.1926 17.3168L7.3176 13.5668C7.709 13.1742 7.43049 12.5 6.87502 12.5ZM16.875 4.99999H9.37502C9.20926 4.99999 9.05029 5.06584 8.93307 5.18305C8.81587 5.30026 8.75002 5.45923 8.75002 5.62499V6.87499C8.75002 7.04075 8.81587 7.19972 8.93307 7.31693C9.05029 7.43414 9.20926 7.49999 9.37502 7.49999H16.875C17.0408 7.49999 17.1997 7.43414 17.3169 7.31693C17.4342 7.19972 17.5 7.04075 17.5 6.87499V5.62499C17.5 5.45923 17.4342 5.30026 17.3169 5.18305C17.1997 5.06584 17.0408 4.99999 16.875 4.99999ZM14.375 9.99998H9.37502C9.20926 9.99998 9.05029 10.0658 8.93307 10.183C8.81587 10.3003 8.75002 10.4592 8.75002 10.625V11.875C8.75002 12.0407 8.81587 12.1997 8.93307 12.3169C9.05029 12.4341 9.20926 12.5 9.37502 12.5H14.375C14.5408 12.5 14.6997 12.4341 14.8169 12.3169C14.9342 12.1997 15 12.0407 15 11.875V10.625C15 10.4592 14.9342 10.3003 14.8169 10.183C14.6997 10.0658 14.5408 9.99998 14.375 9.99998ZM19.375 0H9.37502C9.20926 0 9.05029 0.0658479 8.93307 0.183058C8.81587 0.300268 8.75002 0.459239 8.75002 0.624999V1.875C8.75002 2.04076 8.81587 2.19973 8.93307 2.31694C9.05029 2.43415 9.20926 2.5 9.37502 2.5H19.375C19.5408 2.5 19.6997 2.43415 19.8169 2.31694C19.9342 2.19973 20 2.04076 20 1.875V0.624999C20 0.459239 19.9342 0.300268 19.8169 0.183058C19.6997 0.0658479 19.5408 0 19.375 0Z" fill="#DBDBDB"/>
</svg>
