<svg width="10" height="10" viewBox="0 0 10 10" fill="none" xmlns="http://www.w3.org/2000/svg">
<path d="M5 0C2.23992 0 0 2.23992 0 5C0 7.76008 2.23992 10 5 10C7.76008 10 10 7.76008 10 5C10 2.23992 7.76008 0 5 0ZM7.03024 7.35685C6.94556 7.35685 6.89315 7.33064 6.81452 7.28427C5.55645 6.52621 4.09274 6.49395 2.64718 6.79032C2.56855 6.81048 2.46573 6.84274 2.40726 6.84274C2.21169 6.84274 2.08871 6.6875 2.08871 6.52419C2.08871 6.31653 2.21169 6.21774 2.3629 6.18548C4.01411 5.82056 5.70161 5.85282 7.14113 6.71371C7.26411 6.79234 7.33669 6.8629 7.33669 7.04637C7.33669 7.22984 7.19355 7.35685 7.03024 7.35685ZM7.57258 6.03427C7.46774 6.03427 7.39718 5.9879 7.3246 5.9496C6.06452 5.20363 4.18548 4.90323 2.51411 5.35685C2.41734 5.38306 2.36492 5.40927 2.27419 5.40927C2.05847 5.40927 1.88306 5.23387 1.88306 5.01815C1.88306 4.80242 1.9879 4.65927 2.19556 4.60081C2.75605 4.44355 3.32863 4.32661 4.16734 4.32661C5.47581 4.32661 6.73992 4.65121 7.73589 5.24395C7.89919 5.34073 7.96371 5.46573 7.96371 5.64113C7.96169 5.85887 7.79234 6.03427 7.57258 6.03427ZM8.19758 4.49798C8.09274 4.49798 8.02823 4.47177 7.9375 4.41935C6.50202 3.5625 3.93548 3.35685 2.27419 3.82056C2.20161 3.84073 2.11089 3.87298 2.01411 3.87298C1.74798 3.87298 1.54435 3.66532 1.54435 3.39718C1.54435 3.12298 1.71371 2.96774 1.89516 2.91532C2.60484 2.70766 3.39919 2.60887 4.26411 2.60887C5.73589 2.60887 7.27823 2.91532 8.40524 3.57258C8.5625 3.66331 8.66532 3.78831 8.66532 4.02823C8.66532 4.30242 8.44355 4.49798 8.19758 4.49798Z" fill="#4B5563"/>
</svg>
