<svg width="103" height="78" viewBox="0 0 103 78" fill="none" xmlns="http://www.w3.org/2000/svg">
<g filter="url(#filter0_d_279_4)">
<path d="M48.3101 45.8436C48.2817 43.481 51.6536 43.0308 52.246 45.3181L52.9001 47.8431C53.1308 48.7341 53.9399 49.3525 54.8602 49.3415L57.4683 49.3102C59.8309 49.2818 60.2811 52.6537 57.9938 53.2461L55.4688 53.9002C54.5778 54.1309 53.9594 54.94 53.9704 55.8603L54.0017 58.4684C54.0301 60.831 50.6582 61.2812 50.0658 58.9939L49.4118 56.4689C49.181 55.5779 48.3719 54.9595 47.4516 54.9705L44.8435 55.0019C42.4809 55.0302 42.0307 51.6583 44.318 51.0659L46.843 50.4119C47.734 50.1811 48.3524 49.372 48.3414 48.4517L48.3101 45.8436Z" fill="url(#paint0_linear_279_4)"/>
</g>
<g filter="url(#filter1_d_279_4)">
<path d="M76.5329 17.2756C77.6996 15.5435 80.4065 16.5338 80.1799 18.6099L79.1286 28.2432C79.048 28.9816 79.3834 29.7039 79.9995 30.1189L88.0368 35.5325C89.7689 36.6992 88.7786 39.4061 86.7025 39.1795L77.0693 38.1282C76.3308 38.0476 75.6085 38.383 75.1935 38.9991L69.78 47.0364C68.6133 48.7685 65.9064 47.7782 66.1329 45.7021L67.1842 36.0689C67.2648 35.3304 66.9295 34.6081 66.3133 34.1931L58.276 28.7795C56.5439 27.6129 57.5342 24.906 59.6103 25.1325L69.2436 26.1838C69.982 26.2644 70.7043 25.9291 71.1193 25.3129L76.5329 17.2756Z" fill="url(#paint1_linear_279_4)"/>
</g>
<g filter="url(#filter2_d_279_4)">
<path d="M20.9836 13.1539C21.06 11.4761 23.0452 10.6339 24.3047 11.745L33.5757 19.9237C33.9176 20.2254 34.3524 20.4011 34.8079 20.4218L47.1581 20.9836C48.8359 21.06 49.6781 23.0452 48.567 24.3047L40.3883 33.5757C40.0866 33.9176 39.9109 34.3524 39.8902 34.8079L39.3284 47.1581C39.252 48.8359 37.2668 49.6781 36.0073 48.567L26.7363 40.3883C26.3944 40.0866 25.9596 39.9109 25.5041 39.8901L13.1539 39.3284C11.4761 39.252 10.6339 37.2668 11.745 36.0073L19.9237 26.7363C20.2254 26.3944 20.4011 25.9596 20.4219 25.5041L20.9836 13.1539Z" fill="url(#paint2_linear_279_4)"/>
</g>
<path d="M7.5 41V46M5 43.5H10" stroke="url(#paint3_linear_279_4)"/>
<path d="M6.68006 20.1383L8.32004 24.8617M5.13835 23.32L9.86174 21.68" stroke="url(#paint4_linear_279_4)"/>
<path d="M31.1665 53.0904L29.8343 57.9097M28.0907 54.8339L32.91 56.1661" stroke="url(#paint5_linear_279_4)"/>
<path d="M57.6625 14.2457L53.3373 16.7543M54.2456 13.3374L56.7542 17.6626" stroke="url(#paint6_linear_279_4)"/>
<path d="M73.9174 61.0689L75.0832 65.9311M72.0692 64.0828L76.9314 62.9171" stroke="url(#paint7_linear_279_4)"/>
<path d="M94.4243 23.1773L92.5749 27.8227M91.1769 24.5753L95.8223 26.4247" stroke="url(#paint8_linear_279_4)"/>
<defs>
<filter id="filter0_d_279_4" x="38.8184" y="43.8181" width="24.6758" height="24.6759" filterUnits="userSpaceOnUse" color-interpolation-filters="sRGB">
<feFlood flood-opacity="0" result="BackgroundImageFix"/>
<feColorMatrix in="SourceAlpha" type="matrix" values="0 0 0 0 0 0 0 0 0 0 0 0 0 0 0 0 0 0 127 0" result="hardAlpha"/>
<feOffset dy="4"/>
<feGaussianBlur stdDeviation="2"/>
<feComposite in2="hardAlpha" operator="out"/>
<feColorMatrix type="matrix" values="0 0 0 0 0 0 0 0 0 0 0 0 0 0 0 0 0 0 0.25 0"/>
<feBlend mode="normal" in2="BackgroundImageFix" result="effect1_dropShadow_279_4"/>
<feBlend mode="normal" in="SourceGraphic" in2="effect1_dropShadow_279_4" result="shape"/>
</filter>
<filter id="filter1_d_279_4" x="53.3877" y="16.387" width="39.5381" height="39.5381" filterUnits="userSpaceOnUse" color-interpolation-filters="sRGB">
<feFlood flood-opacity="0" result="BackgroundImageFix"/>
<feColorMatrix in="SourceAlpha" type="matrix" values="0 0 0 0 0 0 0 0 0 0 0 0 0 0 0 0 0 0 127 0" result="hardAlpha"/>
<feOffset dy="4"/>
<feGaussianBlur stdDeviation="2"/>
<feComposite in2="hardAlpha" operator="out"/>
<feColorMatrix type="matrix" values="0 0 0 0 0 0 0 0 0 0 0 0 0 0 0 0 0 0 0.25 0"/>
<feBlend mode="normal" in2="BackgroundImageFix" result="effect1_dropShadow_279_4"/>
<feBlend mode="normal" in="SourceGraphic" in2="effect1_dropShadow_279_4" result="shape"/>
</filter>
<filter id="filter2_d_279_4" x="7.24121" y="11.2415" width="45.8291" height="45.829" filterUnits="userSpaceOnUse" color-interpolation-filters="sRGB">
<feFlood flood-opacity="0" result="BackgroundImageFix"/>
<feColorMatrix in="SourceAlpha" type="matrix" values="0 0 0 0 0 0 0 0 0 0 0 0 0 0 0 0 0 0 127 0" result="hardAlpha"/>
<feOffset dy="4"/>
<feGaussianBlur stdDeviation="2"/>
<feComposite in2="hardAlpha" operator="out"/>
<feColorMatrix type="matrix" values="0 0 0 0 0 0 0 0 0 0 0 0 0 0 0 0 0 0 0.25 0"/>
<feBlend mode="normal" in2="BackgroundImageFix" result="effect1_dropShadow_279_4"/>
<feBlend mode="normal" in="SourceGraphic" in2="effect1_dropShadow_279_4" result="shape"/>
</filter>
<linearGradient id="paint0_linear_279_4" x1="29.9947" y1="50.8329" x2="71.8918" y2="45.3187" gradientUnits="userSpaceOnUse">
<stop stop-color="#ED7EFF"/>
<stop offset="1" stop-color="#7EC1FF"/>
</linearGradient>
<linearGradient id="paint1_linear_279_4" x1="55.0354" y1="21.148" x2="94.6941" y2="35.7412" gradientUnits="userSpaceOnUse">
<stop stop-color="#ED7EFF"/>
<stop offset="1" stop-color="#7EC1FF"/>
</linearGradient>
<linearGradient id="paint2_linear_279_4" x1="9.402" y1="34.4941" x2="48.3351" y2="18.0627" gradientUnits="userSpaceOnUse">
<stop stop-color="#ED7EFF"/>
<stop offset="1" stop-color="#7EC1FF"/>
</linearGradient>
<linearGradient id="paint3_linear_279_4" x1="5.23913" y1="43.0531" x2="9.83243" y2="43.0616" gradientUnits="userSpaceOnUse">
<stop stop-color="#ED7EFF"/>
<stop offset="1" stop-color="#7EC1FF"/>
</linearGradient>
<linearGradient id="paint4_linear_279_4" x1="5.21765" y1="22.8194" x2="9.55966" y2="21.3209" gradientUnits="userSpaceOnUse">
<stop stop-color="#ED7EFF"/>
<stop offset="1" stop-color="#7EC1FF"/>
</linearGradient>
<linearGradient id="paint5_linear_279_4" x1="28.4403" y1="54.4669" x2="32.8653" y2="55.699" gradientUnits="userSpaceOnUse">
<stop stop-color="#ED7EFF"/>
<stop offset="1" stop-color="#7EC1FF"/>
</linearGradient>
<linearGradient id="paint6_linear_279_4" x1="54.7522" y1="13.32" x2="57.0493" y2="17.2977" gradientUnits="userSpaceOnUse">
<stop stop-color="#ED7EFF"/>
<stop offset="1" stop-color="#7EC1FF"/>
</linearGradient>
<linearGradient id="paint7_linear_279_4" x1="72.1975" y1="63.5925" x2="76.6662" y2="62.5299" gradientUnits="userSpaceOnUse">
<stop stop-color="#ED7EFF"/>
<stop offset="1" stop-color="#7EC1FF"/>
</linearGradient>
<linearGradient id="paint8_linear_279_4" x1="91.5644" y1="24.2485" x2="95.8288" y2="25.9554" gradientUnits="userSpaceOnUse">
<stop stop-color="#ED7EFF"/>
<stop offset="1" stop-color="#7EC1FF"/>
</linearGradient>
</defs>
</svg>
