<svg width="13" height="14" viewBox="0 0 13 14" fill="none" xmlns="http://www.w3.org/2000/svg">
<path d="M12.7831 9.14457L9.10165 7L12.7831 4.85543C12.9906 4.73457 13.0615 4.46715 12.9418 4.2577L12.0746 2.74203C11.9549 2.53285 11.6898 2.46094 11.4823 2.5818L7.80083 4.72637V0.4375C7.80083 0.195781 7.60664 0 7.36722 0H5.63278C5.39336 0 5.19918 0.195781 5.19918 0.4375V4.72664L1.5177 2.58207C1.31024 2.46121 1.04509 2.53312 0.925384 2.7423L0.0581678 4.2577C-0.0615417 4.46688 0.00941738 4.73457 0.216878 4.85543L3.89835 7L0.216878 9.14457C0.00941738 9.26543 -0.0615417 9.53312 0.0581678 9.7423L0.925384 11.258C1.04509 11.4671 1.31024 11.5388 1.5177 11.4182L5.19918 9.27363V13.5625C5.19918 13.8042 5.39336 14 5.63278 14H7.36722C7.60664 14 7.80083 13.8042 7.80083 13.5625V9.27336L11.4823 11.4179C11.6898 11.5388 11.9549 11.4671 12.0746 11.2577L12.9418 9.74203C13.0615 9.53285 12.9906 9.26543 12.7831 9.14457Z" fill="#BABABA"/>
</svg>
