<svg width="11" height="10" viewBox="0 0 11 10" fill="none" xmlns="http://www.w3.org/2000/svg">
<path d="M5.05918 7.19899C5.02793 7.19899 3.09512 9.87502 3.0795 9.87502C3.06388 9.87502 1.14669 8.52584 1.1391 8.5091C1.13151 8.49236 3.07191 5.70363 3.07191 5.66569C3.07191 5.61658 0.179393 4.68366 0.000842689 4.61447C-0.0281718 4.60331 0.701654 2.34241 0.708349 2.33572C0.721741 2.32009 3.93119 3.3847 3.95574 3.3847C3.96467 3.3847 3.97583 3.37131 3.97806 3.35569C3.98698 3.31105 4.00038 0.0391091 4.016 0.0167903C4.03385 -0.00999233 6.34832 0.0011671 6.36171 0.0100946C6.39519 0.0324134 6.43982 3.49406 6.49785 3.49406C6.5291 3.49406 9.59347 2.44508 9.60686 2.4607C9.62472 2.48079 10.3188 4.74169 10.3099 4.75061C10.2898 4.7707 7.18081 5.80183 7.17188 5.83977C7.16518 5.87102 9.01988 8.5649 9.01318 8.58276C9.00649 8.60061 7.10492 10 7.08707 10C7.06475 9.99554 5.10069 7.19899 5.05829 7.19899H5.05918Z" fill="#DBDBDB"/>
</svg>
