<svg width="6" height="20" viewBox="0 0 6 20" fill="none" xmlns="http://www.w3.org/2000/svg">
<path d="M2.90323 7.09677C4.50806 7.09677 5.80645 8.39516 5.80645 10C5.80645 11.6048 4.50806 12.9032 2.90323 12.9032C1.29839 12.9032 0 11.6048 0 10C0 8.39516 1.29839 7.09677 2.90323 7.09677ZM0 2.90323C0 4.50806 1.29839 5.80645 2.90323 5.80645C4.50806 5.80645 5.80645 4.50806 5.80645 2.90323C5.80645 1.29839 4.50806 0 2.90323 0C1.29839 0 0 1.29839 0 2.90323ZM0 17.0968C0 18.7016 1.29839 20 2.90323 20C4.50806 20 5.80645 18.7016 5.80645 17.0968C5.80645 15.4919 4.50806 14.1935 2.90323 14.1935C1.29839 14.1935 0 15.4919 0 17.0968Z" fill="#DBDBDB"/>
</svg>
