<svg width="31" height="49" viewBox="0 0 31 49" fill="none" xmlns="http://www.w3.org/2000/svg">
<path d="M1.43709 1.0265C1.39226 0.754015 1.13503 0.569471 0.86255 0.614305C0.590071 0.659135 0.405526 0.916367 0.450358 1.18884L1.43709 1.0265ZM29.7059 48.3224C29.9798 48.2872 30.1733 48.0366 30.138 47.7627L29.5636 43.2995C29.5283 43.0256 29.2777 42.8322 29.0039 42.8674C28.73 42.9027 28.5365 43.1533 28.5718 43.4272L29.0824 47.3945L25.1151 47.905C24.8412 47.9403 24.6478 48.1909 24.683 48.4648C24.7183 48.7387 24.9689 48.9321 25.2427 48.8969L29.7059 48.3224ZM0.450358 1.18884C2.00777 10.6545 9.95416 33.2601 29.3366 48.2223L29.9476 47.4307C10.8203 32.6655 2.96623 10.3203 1.43709 1.0265L0.450358 1.18884Z" fill="url(#paint0_linear_53_389)"/>
<defs>
<linearGradient id="paint0_linear_53_389" x1="16.1841" y1="47.1476" x2="10.5096" y2="1.56667" gradientUnits="userSpaceOnUse">
<stop stop-color="#ED7EFF"/>
<stop offset="1" stop-color="#7EC1FF"/>
</linearGradient>
</defs>
</svg>
