<svg width="6" height="6" viewBox="0 0 6 6" fill="none" xmlns="http://www.w3.org/2000/svg">
<path opacity="0.5" d="M4.70756 2.56583C5.43177 3.2344 4.8542 4.43677 3.87966 4.28934L3.69686 4.26169C3.36884 4.21206 3.03755 4.32835 2.81252 4.57212L2.68711 4.70796C2.01854 5.43216 0.816164 4.85459 0.963596 3.88005L0.99125 3.69726C1.04088 3.36923 0.924586 3.03795 0.68082 2.81291L0.54498 2.68751C-0.179225 2.01894 0.398345 0.816559 1.37288 0.963991L1.55568 0.991645C1.8837 1.04127 2.21499 0.924981 2.44003 0.681215L2.56543 0.545375C3.234 -0.17883 4.43638 0.39874 4.28895 1.37328L4.26129 1.55607C4.21167 1.8841 4.32796 2.21538 4.57172 2.44042L4.70756 2.56583Z" fill="url(#paint0_linear_53_491)"/>
<defs>
<linearGradient id="paint0_linear_53_491" x1="5.37113" y1="-1.03714" x2="1.40507" y2="7.18007" gradientUnits="userSpaceOnUse">
<stop stop-color="#ED7EFF"/>
<stop offset="1" stop-color="#7EC1FF"/>
</linearGradient>
</defs>
</svg>
