<svg width="70" height="73" viewBox="0 0 70 73" fill="none" xmlns="http://www.w3.org/2000/svg">
<g filter="url(#filter0_d_2687_1688)">
<mask id="mask0_2687_1688" style="mask-type:alpha" maskUnits="userSpaceOnUse" x="10" y="0" width="50" height="50">
<rect x="10" width="50" height="50" fill="#D9D9D9"/>
</mask>
<g mask="url(#mask0_2687_1688)">
<path d="M47.9248 5.31345C50.6915 5.98393 52.8943 8.09509 53.703 10.851L58.3405 26.657C59.1486 29.4111 58.4415 32.3906 56.4856 34.4737L45.2506 46.4399C43.2947 48.523 40.3869 49.3935 37.6222 48.7235L21.7547 44.8781C18.988 44.2076 16.7852 42.0965 15.9765 39.3405L11.339 23.5345C10.5309 20.7805 11.238 17.801 13.1939 15.7178L24.4289 3.75171C26.3848 1.66855 29.2926 0.798101 32.0573 1.46811L47.9248 5.31345Z" fill="url(#paint0_linear_2687_1688)"/>
<path d="M33.1208 13.2536C33.7591 11.4984 36.2415 11.4984 36.8799 13.2536L39.2081 19.6556C39.4087 20.2072 39.8415 20.6428 40.3917 20.847L46.7861 23.2208C48.5248 23.8662 48.5248 26.3253 46.7861 26.9707L40.3917 29.3445C39.8415 29.5487 39.4087 29.9843 39.2081 30.5359L36.8799 36.9379C36.2415 38.6932 33.7591 38.6931 33.1207 36.9379L30.7925 30.5359C30.5919 29.9843 30.1591 29.5487 29.6089 29.3445L23.2145 26.9707C21.4758 26.3253 21.4758 23.8662 23.2145 23.2208L29.6089 20.847C30.1591 20.6428 30.5919 20.2072 30.7925 19.6556L33.1208 13.2536Z" fill="white"/>
</g>
</g>
<path d="M16.0729 59V69.5H13.8049V59.798L14.4069 59.84L9.92693 69.5H7.47693L2.99693 59.868L3.58493 59.812V69.5H1.33093V59H4.98493L9.21293 68.352H8.19093L12.4189 59H16.0729ZM18.2157 59H20.5957V69.5H18.2157V59ZM24.3931 63.662H28.4391C28.9711 63.662 29.3911 63.5407 29.6991 63.298C30.0164 63.046 30.1751 62.7007 30.1751 62.262C30.1751 61.8233 30.0164 61.4827 29.6991 61.24C29.3911 60.9973 28.9711 60.876 28.4391 60.876H24.0431L25.1211 59.658V69.5H22.7411V59H28.7191C29.4844 59 30.1564 59.14 30.7351 59.42C31.3138 59.6907 31.7664 60.0687 32.0931 60.554C32.4198 61.0393 32.5831 61.6087 32.5831 62.262C32.5831 62.906 32.4198 63.4707 32.0931 63.956C31.7664 64.4413 31.3138 64.824 30.7351 65.104C30.1564 65.3747 29.4844 65.51 28.7191 65.51H24.3931V63.662ZM26.2131 64.586H28.9291L32.8911 69.5H30.1051L26.2131 64.586ZM35.8654 67.288V65.356H43.1454V67.288H35.8654ZM41.0874 59L46.0014 69.5H43.4674L39.1694 59.966H39.9534L35.6554 69.5H33.1214L38.0354 59H41.0874ZM57.1561 64.95C57.1468 65.5847 57.0208 66.1913 56.7781 66.77C56.5448 67.3393 56.2088 67.848 55.7701 68.296C55.3315 68.7347 54.7901 69.08 54.1461 69.332C53.5021 69.584 52.7555 69.71 51.9061 69.71C51.0848 69.71 50.3148 69.5887 49.5961 69.346C48.8868 69.094 48.2615 68.7347 47.7201 68.268C47.1881 67.8013 46.7728 67.232 46.4741 66.56C46.1755 65.8787 46.0261 65.1087 46.0261 64.25C46.0261 63.3913 46.1755 62.626 46.4741 61.954C46.7821 61.2727 47.2068 60.6987 47.7481 60.232C48.2895 59.7653 48.9241 59.4107 49.6521 59.168C50.3801 58.916 51.1735 58.79 52.0321 58.79C53.1521 58.79 54.1228 58.9673 54.9441 59.322C55.7655 59.6673 56.4281 60.148 56.9321 60.764C57.4455 61.38 57.7628 62.0847 57.8841 62.878H55.4901C55.3968 62.4487 55.1915 62.08 54.8741 61.772C54.5661 61.464 54.1695 61.226 53.6841 61.058C53.2081 60.89 52.6575 60.806 52.0321 60.806C51.2948 60.806 50.6555 60.9413 50.1141 61.212C49.5821 61.4733 49.1668 61.8607 48.8681 62.374C48.5788 62.8873 48.4341 63.5127 48.4341 64.25C48.4341 64.9873 48.5881 65.6173 48.8961 66.14C49.2041 66.6627 49.6428 67.064 50.2121 67.344C50.7815 67.6147 51.4535 67.75 52.2281 67.75C52.9841 67.75 53.6468 67.6333 54.2161 67.4C54.7855 67.1573 55.2335 66.8213 55.5601 66.392C55.8961 65.9533 56.0875 65.4353 56.1341 64.838L57.1561 64.95ZM52.5501 65.916V64.194H57.9961V69.5H56.2881L55.9661 65.244L56.4561 65.916H52.5501ZM68.5812 63.34V65.16H61.0632V63.34H68.5812ZM62.6592 64.25L61.9592 68.702L60.9232 67.526H69.0152V69.5H59.5652L60.3772 64.25L59.5652 59H68.9452V60.974H60.9232L61.9592 59.798L62.6592 64.25Z" fill="#D64DF4" fill-opacity="0.3"/>
<path d="M16.0731 57.5V68H13.8051V58.298L14.4071 58.34L9.92705 68H7.47705L2.99705 58.368L3.58505 58.312V68H1.33105V57.5H4.98505L9.21305 66.852H8.19105L12.4191 57.5H16.0731ZM18.2158 57.5H20.5958V68H18.2158V57.5ZM24.3932 62.162H28.4392C28.9712 62.162 29.3912 62.0407 29.6992 61.798C30.0165 61.546 30.1752 61.2007 30.1752 60.762C30.1752 60.3233 30.0165 59.9827 29.6992 59.74C29.3912 59.4973 28.9712 59.376 28.4392 59.376H24.0432L25.1212 58.158V68H22.7412V57.5H28.7192C29.4845 57.5 30.1565 57.64 30.7352 57.92C31.3139 58.1907 31.7665 58.5687 32.0932 59.054C32.4199 59.5393 32.5832 60.1087 32.5832 60.762C32.5832 61.406 32.4199 61.9707 32.0932 62.456C31.7665 62.9413 31.3139 63.324 30.7352 63.604C30.1565 63.8747 29.4845 64.01 28.7192 64.01H24.3932V62.162ZM26.2132 63.086H28.9292L32.8912 68H30.1052L26.2132 63.086ZM35.8656 65.788V63.856H43.1456V65.788H35.8656ZM41.0876 57.5L46.0016 68H43.4676L39.1696 58.466H39.9536L35.6556 68H33.1216L38.0356 57.5H41.0876ZM57.1563 63.45C57.1469 64.0847 57.0209 64.6913 56.7783 65.27C56.5449 65.8393 56.2089 66.348 55.7703 66.796C55.3316 67.2347 54.7903 67.58 54.1463 67.832C53.5023 68.084 52.7556 68.21 51.9063 68.21C51.0849 68.21 50.3149 68.0887 49.5963 67.846C48.8869 67.594 48.2616 67.2347 47.7203 66.768C47.1883 66.3013 46.7729 65.732 46.4743 65.06C46.1756 64.3787 46.0263 63.6087 46.0263 62.75C46.0263 61.8913 46.1756 61.126 46.4743 60.454C46.7823 59.7727 47.2069 59.1987 47.7483 58.732C48.2896 58.2653 48.9243 57.9107 49.6523 57.668C50.3803 57.416 51.1736 57.29 52.0323 57.29C53.1523 57.29 54.1229 57.4673 54.9443 57.822C55.7656 58.1673 56.4283 58.648 56.9323 59.264C57.4456 59.88 57.7629 60.5847 57.8843 61.378H55.4903C55.3969 60.9487 55.1916 60.58 54.8743 60.272C54.5663 59.964 54.1696 59.726 53.6843 59.558C53.2083 59.39 52.6576 59.306 52.0323 59.306C51.2949 59.306 50.6556 59.4413 50.1143 59.712C49.5823 59.9733 49.1669 60.3607 48.8683 60.874C48.5789 61.3873 48.4343 62.0127 48.4343 62.75C48.4343 63.4873 48.5883 64.1173 48.8963 64.64C49.2043 65.1627 49.6429 65.564 50.2123 65.844C50.7816 66.1147 51.4536 66.25 52.2283 66.25C52.9843 66.25 53.6469 66.1333 54.2163 65.9C54.7856 65.6573 55.2336 65.3213 55.5603 64.892C55.8963 64.4533 56.0876 63.9353 56.1343 63.338L57.1563 63.45ZM52.5503 64.416V62.694H57.9963V68H56.2883L55.9663 63.744L56.4563 64.416H52.5503ZM68.5814 61.84V63.66H61.0634V61.84H68.5814ZM62.6594 62.75L61.9594 67.202L60.9234 66.026H69.0154V68H59.5654L60.3774 62.75L59.5654 57.5H68.9454V59.474H60.9234L61.9594 58.298L62.6594 62.75Z" fill="#D64DF4"/>
<defs>
<filter id="filter0_d_2687_1688" x="7.0105" y="1.24609" width="55.6584" height="55.6992" filterUnits="userSpaceOnUse" color-interpolation-filters="sRGB">
<feFlood flood-opacity="0" result="BackgroundImageFix"/>
<feColorMatrix in="SourceAlpha" type="matrix" values="0 0 0 0 0 0 0 0 0 0 0 0 0 0 0 0 0 0 127 0" result="hardAlpha"/>
<feOffset dy="4"/>
<feGaussianBlur stdDeviation="2"/>
<feComposite in2="hardAlpha" operator="out"/>
<feColorMatrix type="matrix" values="0 0 0 0 0 0 0 0 0 0 0 0 0 0 0 0 0 0 0.1 0"/>
<feBlend mode="normal" in2="BackgroundImageFix" result="effect1_dropShadow_2687_1688"/>
<feBlend mode="normal" in="SourceGraphic" in2="effect1_dropShadow_2687_1688" result="shape"/>
</filter>
<linearGradient id="paint0_linear_2687_1688" x1="12" y1="18.7688" x2="58.2686" y2="36.0264" gradientUnits="userSpaceOnUse">
<stop stop-color="#CB77FF"/>
<stop offset="0.5" stop-color="#FF5CE5"/>
<stop offset="1" stop-color="#B640FF"/>
</linearGradient>
</defs>
</svg>
