<svg xmlns="http://www.w3.org/2000/svg" width="56" height="57" fill="none"><g filter="url(#a)"><mask id="b" width="50" height="50" x="3" y="0" maskUnits="userSpaceOnUse" style="mask-type:alpha"><path fill="#D9D9D9" d="M3 0h50v50H3z"/></mask><g mask="url(#b)"><path fill="url(#c)" d="M40.925 5.313a8 8 0 0 1 5.778 5.538l4.637 15.806a8.097 8.097 0 0 1-1.854 7.817L38.25 46.44a7.904 7.904 0 0 1-7.629 2.284l-15.867-3.846a8 8 0 0 1-5.778-5.538L4.339 23.535a8.098 8.098 0 0 1 1.855-7.816L17.429 3.752a7.904 7.904 0 0 1 7.628-2.284l15.868 3.845Z"/><path fill="#fff" d="M26.12 13.254c.64-1.756 3.121-1.756 3.76 0l2.328 6.402a2 2 0 0 0 1.184 1.191l6.394 2.374c1.739.645 1.739 3.104 0 3.75l-6.394 2.373a2 2 0 0 0-1.184 1.192l-2.328 6.402c-.639 1.755-3.12 1.755-3.76 0l-2.328-6.402a2 2 0 0 0-1.183-1.192l-6.395-2.373c-1.738-.646-1.738-3.105 0-3.75l6.395-2.374a2 2 0 0 0 1.183-1.191l2.329-6.402Z"/></g></g><defs><linearGradient id="c" x1="5" x2="51.269" y1="18.769" y2="36.026" gradientUnits="userSpaceOnUse"><stop stop-color="#CB77FF"/><stop offset=".5" stop-color="#FF5CE5"/><stop offset="1" stop-color="#B640FF"/></linearGradient><filter id="a" width="55.658" height="55.699" x=".01" y="1.246" color-interpolation-filters="sRGB" filterUnits="userSpaceOnUse"><feFlood flood-opacity="0" result="BackgroundImageFix"/><feColorMatrix in="SourceAlpha" result="hardAlpha" values="0 0 0 0 0 0 0 0 0 0 0 0 0 0 0 0 0 0 127 0"/><feOffset dy="4"/><feGaussianBlur stdDeviation="2"/><feComposite in2="hardAlpha" operator="out"/><feColorMatrix values="0 0 0 0 0 0 0 0 0 0 0 0 0 0 0 0 0 0 0.1 0"/><feBlend in2="BackgroundImageFix" result="effect1_dropShadow_2969_988"/><feBlend in="SourceGraphic" in2="effect1_dropShadow_2969_988" result="shape"/></filter></defs></svg>
